# xmcd
#
# Track frame offsets:
#	150
#	18057
#	39241
#	58601
#	79127
#	96887
#	109670
#	131474
#	155429
#	176123
#	195576
#
# Disc length: 2970 seconds
#
# Revision: 1
# Processed by: cddbd v1.5PL3 Copyright (c) Steve Scherf et al.
# Submitted via: EasyCDDAExtractor 5.0.6
#
DISCID=810b980b
DTITLE=Sara Bareilles - Careful Confessions
DYEAR=2003
DGENRE=R&B
TTITLE0=Gravity
TTITLE1=Undertow
TTITLE2=Love On The Rocks
TTITLE3=Responsible
TTITLE4=One Sweet Love
TTITLE5=Fairytale
TTITLE6=Come Round Soon
TTITLE7=Inside Out
TTITLE8=City
TTITLE9=Red
TTITLE10=My Love
EXTD=
EXTT0=
EXTT1=
EXTT2=
EXTT3=
EXTT4=
EXTT5=
EXTT6=
EXTT7=
EXTT8=
EXTT9=
EXTT10=
PLAYORDER=
